<?xml version="1.0" encoding="UTF-8" standalone="no"?>
<!-- Created with Inkscape (http://www.inkscape.org/) -->

<svg
   xmlns:dc="http://purl.org/dc/elements/1.1/"
   xmlns:cc="http://creativecommons.org/ns#"
   xmlns:rdf="http://www.w3.org/1999/02/22-rdf-syntax-ns#"
   xmlns:svg="http://www.w3.org/2000/svg"
   xmlns="http://www.w3.org/2000/svg"
   xmlns:sodipodi="http://sodipodi.sourceforge.net/DTD/sodipodi-0.dtd"
   xmlns:inkscape="http://www.inkscape.org/namespaces/inkscape"
   width="768"
   height="400"
   viewBox="0 0 203.19999 105.83334"
   version="1.1"
   id="svg8"
   inkscape:version="0.92.2 (5c3e80d, 2017-08-06)"
   sodipodi:docname="logo_login.svg"
   inkscape:export-filename="C:\ns\VeeamCoffee\gfx\logo_login.png"
   inkscape:export-xdpi="96"
   inkscape:export-ydpi="96">
  <defs
     id="defs2" />
  <sodipodi:namedview
     id="base"
     pagecolor="#ffffff"
     bordercolor="#666666"
     borderopacity="1.0"
     inkscape:pageopacity="0.0"
     inkscape:pageshadow="2"
     inkscape:zoom="0.7"
     inkscape:cx="82.272412"
     inkscape:cy="476.06311"
     inkscape:document-units="mm"
     inkscape:current-layer="layer1"
     showgrid="false"
     units="px"
     showguides="false"
     inkscape:window-width="1920"
     inkscape:window-height="1017"
     inkscape:window-x="-8"
     inkscape:window-y="-8"
     inkscape:window-maximized="1" />
  <metadata
     id="metadata5">
    <rdf:RDF>
      <cc:Work
         rdf:about="">
        <dc:format>image/svg+xml</dc:format>
        <dc:type
           rdf:resource="http://purl.org/dc/dcmitype/StillImage" />
        <dc:title></dc:title>
      </cc:Work>
    </rdf:RDF>
  </metadata>
  <g
     inkscape:label="Laag 1"
     inkscape:groupmode="layer"
     id="layer1"
     transform="translate(0,-191.16675)">
    <g
       id="g5883"
       transform="translate(13.607143,-1.1339286)">
      <path
         inkscape:connector-curvature="0"
         id="path4533"
         d="m 69.975287,256.60243 c -1.263978,0.45376 -2.463334,0.95542 -3.587091,1.5022 -5.687797,2.7675 -9.786483,6.88134 -9.786485,12.00814 0,5.12679 4.098688,9.23919 9.786485,12.00668 5.687796,2.7675 13.283406,4.39239 21.65604,4.39239 8.37263,0 15.968244,-1.62489 21.656044,-4.39239 5.68779,-2.76749 9.78648,-6.87989 9.78648,-12.00668 0,-5.1268 -4.09869,-9.24064 -9.78648,-12.00814 -0.98463,-0.47909 -2.02768,-0.92322 -3.12079,-1.33125 a 20.077731,14.623878 0 0 1 -3.05169,3.48489 c 1.56228,0.50121 3.00542,1.07103 4.29746,1.6997 4.91662,2.39226 7.37678,5.40807 7.37678,8.1548 0,2.74672 -2.46016,5.76107 -7.37678,8.15334 -4.91662,2.39226 -11.971867,3.95918 -19.781024,3.95918 -7.809159,0 -14.864401,-1.56692 -19.781018,-3.95918 -4.916619,-2.39227 -7.375327,-5.40662 -7.375327,-8.15334 0,-2.74673 2.458708,-5.76254 7.375327,-8.1548 1.408007,-0.68509 2.996396,-1.2998 4.722652,-1.8321 a 20.077731,14.623878 0 0 1 -3.010583,-3.52344 z"
         style="color:#000000;font-style:normal;font-variant:normal;font-weight:normal;font-stretch:normal;font-size:medium;line-height:normal;font-family:sans-serif;font-variant-ligatures:normal;font-variant-position:normal;font-variant-caps:normal;font-variant-numeric:normal;font-variant-alternates:normal;font-feature-settings:normal;text-indent:0;text-align:start;text-decoration:none;text-decoration-line:none;text-decoration-style:solid;text-decoration-color:#000000;letter-spacing:normal;word-spacing:normal;text-transform:none;writing-mode:lr-tb;direction:ltr;text-orientation:mixed;dominant-baseline:auto;baseline-shift:baseline;text-anchor:start;white-space:normal;shape-padding:0;clip-rule:nonzero;display:inline;overflow:visible;visibility:visible;opacity:1;isolation:auto;mix-blend-mode:normal;color-interpolation:sRGB;color-interpolation-filters:linearRGB;solid-color:#000000;solid-opacity:1;vector-effect:none;fill:#005f4b;fill-opacity:1;fill-rule:nonzero;stroke:none;stroke-width:4.28563118;stroke-linecap:butt;stroke-linejoin:miter;stroke-miterlimit:4;stroke-dasharray:none;stroke-dashoffset:0;stroke-opacity:1;color-rendering:auto;image-rendering:auto;shape-rendering:auto;text-rendering:auto;enable-background:accumulate" />
      <path
         sodipodi:nodetypes="ccccccc"
         inkscape:connector-curvature="0"
         id="path3720"
         d="m 67.665793,232.57081 18.634671,32.2762 18.634676,-32.2762 -4.31114,10.42964 c 0,0 11.43117,-5.75712 8.32379,-0.52478 l -7.50252,12.99475 h -6.841227"
         style="fill:none;stroke:#005f4b;stroke-width:4.28563166;stroke-linecap:butt;stroke-linejoin:miter;stroke-miterlimit:4;stroke-dasharray:none;stroke-opacity:1" />
      <path
         sodipodi:nodetypes="csssc"
         inkscape:connector-curvature="0"
         id="path4527"
         d="m 86.557556,234.8652 c 0,0 -10.418038,-8.76801 -9.620805,-14.51868 0.601845,-4.34127 9.768509,-4.19312 9.970651,-8.57125 0.112213,-2.43033 -4.812789,-2.82873 -5.072788,-5.24772 -0.153898,-1.43185 2.274009,-3.67339 2.274009,-3.67339"
         style="fill:none;stroke:#253a35;stroke-width:3.06116509;stroke-linecap:butt;stroke-linejoin:round;stroke-miterlimit:4;stroke-dasharray:none;stroke-opacity:1" />
      <path
         style="fill:none;stroke:#253a35;stroke-width:3.06116509;stroke-linecap:butt;stroke-linejoin:round;stroke-miterlimit:4;stroke-dasharray:none;stroke-opacity:1"
         d="m 94.079274,235.91474 c 0,0 -10.418036,-8.76801 -9.620803,-14.51868 0.601845,-4.34127 9.768508,-4.19312 9.970656,-8.57126 0.112209,-2.43032 -4.812798,-2.82872 -5.072789,-5.2477 -0.153905,-1.43185 2.274003,-3.6734 2.274003,-3.6734"
         id="path4529"
         inkscape:connector-curvature="0"
         sodipodi:nodetypes="csssc" />
    </g>
  </g>
</svg>
